<?xml version="1.0" encoding="utf-8"?>
<!-- Generator: Adobe Illustrator 19.2.1, SVG Export Plug-In . SVG Version: 6.00 Build 0)  -->
<svg version="1.1" id="Layer_1" xmlns="http://www.w3.org/2000/svg" xmlns:xlink="http://www.w3.org/1999/xlink" x="0px" y="0px"
	 viewBox="0 0 40 40" style="enable-background:new 0 0 40 40;" xml:space="preserve">
<style type="text/css">
	.st0{fill:#FFFFFF;}
</style>
<g>
	<g>
		<g id="XMLID_4_">
			<path id="XMLID_14_" class="st0" d="M20.1,29.2c-7.9,0-14.4-6.4-14.4-14.3C5.7,7,12.2,0.5,20.1,0.5S34.5,7,34.5,14.9
				S28,29.2,20.1,29.2z M20.1,1.7c-7.3,0-13.2,5.9-13.2,13.2s5.9,13.2,13.2,13.2s13.2-5.9,13.2-13.2S27.4,1.7,20.1,1.7z"/>
		</g>
		<g id="XMLID_3_">
			<path id="XMLID_11_" class="st0" d="M20.1,40.1c-1.8,0-3.3-1.5-3.3-3.3c0-0.3,0.3-0.6,0.6-0.6h5.4c0.3,0,0.6,0.3,0.6,0.6
				C23.4,38.6,21.9,40.1,20.1,40.1z M18.1,37.4c0.3,0.9,1.1,1.5,2,1.5s1.7-0.6,2-1.5H18.1z"/>
		</g>
		<g id="XMLID_2_">
			<path id="XMLID_8_" class="st0" d="M26,35.7H14.3c-0.3,0-0.6-0.3-0.6-0.6v-4.9c0-0.3,0.3-0.6,0.6-0.6H26c0.3,0,0.6,0.3,0.6,0.6
				v4.9C26.5,35.5,26.3,35.7,26,35.7z M14.9,34.5h10.5v-3.7H14.9V34.5z"/>
		</g>
		<g id="XMLID_1_">
			<path id="XMLID_7_" class="st0" d="M20.7,26.3h-1.2v-4.9h-5.9c-0.2,0-0.4-0.1-0.5-0.3c-0.1-0.2-0.1-0.4,0-0.6l4.2-9.6l-1-5.2
				c0-0.2,0-0.4,0.1-0.5S16.7,5,16.9,5h6.5c0.2,0,0.3,0.1,0.5,0.2C24,5.3,24.1,5.5,24,5.7L22.9,11l3.3,7.3c0.1,0.3,0,0.6-0.2,0.7
				c-1.7,1.3-3.4,0.3-4.9-0.5c-1.6-0.9-2.7-1.4-3.8-0.6l-0.7-1c1.8-1.3,3.5-0.3,5,0.5c1.4,0.8,2.3,1.2,3.2,0.8l-3.2-7
				c-0.1-0.1-0.1-0.2,0-0.4l1-4.7h-5l0.9,4.7c0,0.1,0,0.2,0,0.4l-3.9,8.9h5.6c0.3,0,0.6,0.3,0.6,0.6L20.7,26.3L20.7,26.3z"/>
		</g>
	</g>
</g>
</svg>
