<?xml version="1.0" encoding="utf-8"?>
<!-- Generator: Adobe Illustrator 19.2.1, SVG Export Plug-In . SVG Version: 6.00 Build 0)  -->
<svg version="1.1" id="Experts_circle" xmlns="http://www.w3.org/2000/svg" xmlns:xlink="http://www.w3.org/1999/xlink" x="0px"
	 y="0px" viewBox="0 0 34.4 34.4" style="enable-background:new 0 0 34.4 34.4;" xml:space="preserve">
<style type="text/css">
	.st0{fill:#FFFFFF;}
</style>
<title>GTS-Iconography-ExpertsCircle</title>
<g>
	<g>
		<path class="st0" d="M17.8,21.3L17.8,21.3c0-1-1.2-1.7-2.8-1.7s-2.8,0.8-2.8,1.7l0,0v5.3c0,1,1.2,1.7,2.8,1.7s2.8-0.8,2.8-1.7
			V21.3z M15,20.1c1.3,0,2.3,0.6,2.3,1.2s-0.9,1.2-2.3,1.2s-2.3-0.6-2.3-1.2C12.7,20.7,13.6,20.1,15,20.1z M12.7,22.4
			c0.5,0.4,1.3,0.7,2.3,0.7c0.9,0,1.7-0.3,2.3-0.7v0.7c0,0.6-0.9,1.2-2.3,1.2c-1,0-1.8-0.3-2.1-0.7l0,0c-0.1-0.1-0.2-0.3-0.2-0.4
			V22.4z M12.7,24.1c0.5,0.4,1.3,0.7,2.3,0.7c0.9,0,1.7-0.3,2.3-0.7v0.7c0,0.6-0.9,1.2-2.3,1.2c-1.3,0-2.3-0.6-2.3-1.2
			C12.7,24.8,12.7,24.1,12.7,24.1z M17.2,26.6c0,0.6-0.9,1.2-2.3,1.2c-1.3,0-2.3-0.6-2.3-1.2v-0.7c0.5,0.4,1.3,0.7,2.3,0.7
			c0.9,0,1.7-0.3,2.3-0.7V26.6z"/>
		<path class="st0" d="M15,28.8c-1.8,0-3.2-0.9-3.2-2.1v-5.3c0-1.2,1.4-2.1,3.2-2.1s3.2,0.9,3.2,2.1v5.3
			C18.2,27.8,16.8,28.8,15,28.8z M13.1,26.6L13.1,26.6c0,0.4,0.7,0.9,1.9,0.9s1.9-0.5,1.9-0.8v-0.1C15.8,27.1,14.1,27.1,13.1,26.6z
			 M13.1,24.8L13.1,24.8c0,0.3,0.7,0.9,1.9,0.9s1.9-0.5,1.9-0.8v-0.1C15.8,25.3,14.1,25.3,13.1,24.8z M13.1,23L13.1,23
			c0,0.1,0,0.2,0.1,0.3c0.2,0.3,0.9,0.6,1.8,0.6c1.2,0,1.9-0.5,1.9-0.8c0,0,0,0,0-0.1C15.8,23.5,14.1,23.5,13.1,23z M15,20.5
			c-1.2,0-1.9,0.5-1.9,0.8s0.7,0.8,1.9,0.8s1.9-0.5,1.9-0.8S16.2,20.5,15,20.5z"/>
	</g>
	<g>
		<path class="st0" d="M33.7,16.2l-5.5-6.7c-0.1-0.1-0.1-0.1-0.2-0.1s-0.2,0-0.2,0.1l-0.5,0.6c-2.3-4.6-7-7.7-12.5-7.7
			c0,0-0.4,0-0.5,0C6.7,2.6,0.6,8.8,0.6,16.4c0,7.8,6.3,14.1,14.1,14.1c0.1,0,0.2,0,0.2,0c4.1,0,8-1.3,11-3.7
			c3.2-2.5,4.9-6,5.1-10.1h2.5c0.1,0,0.2-0.1,0.3-0.2C33.8,16.4,33.8,16.2,33.7,16.2z M15,2.9c0.5,0,2.9,0.4,4.8,3.5
			c0.6,1,1,2,1.4,2.9H15V2.9z M14.4,2.9v6.4H8.2c1.3-3.6,3.5-6.1,6-6.4C14.3,2.9,14.3,2.9,14.4,2.9z M14.4,9.9v6.2H7
			c0-2.2,0.4-4.4,0.9-6.2C7.9,9.9,14.4,9.9,14.4,9.9z M11.8,3.2C10,4.3,8.5,6.5,7.6,9.3H3.1C5.1,6.2,8.2,4,11.8,3.2z M2.8,9.9h4.6
			c-0.6,1.9-0.9,4-0.9,6.2H1.2C1.2,13.9,1.8,11.8,2.8,9.9z M8.4,24.8c0.9,0,1.7-0.3,2.3-0.7v0.7c0,0.6-0.9,1.2-2.3,1.2
			c-1,0-1.8-0.3-2.1-0.7l0,0c-0.1-0.1-0.2-0.3-0.2-0.4v-0.7C6.7,24.5,7.5,24.8,8.4,24.8z M6.2,23c0-0.6,0.9-1.2,2.3-1.2
			c1.3,0,2.3,0.6,2.3,1.2s-0.9,1.2-2.3,1.2S6.2,23.6,6.2,23z M8.4,26.6c0.9,0,1.7-0.3,2.3-0.7v0.7c0,0.5-0.8,1.1-2,1.2H8.4l0,0
			c-1.3,0-2.2-0.6-2.2-1.2v-0.7C6.7,26.3,7.5,26.6,8.4,26.6z M14.7,29.9c-2.3,0-4.4-0.6-6.3-1.6h0.1l0,0l0,0c1.6,0,2.8-0.8,2.8-1.7
			v-3.5l0,0c0-1-1.2-1.7-2.8-1.7s-2.8,0.8-2.8,1.7l0,0v3.4l0,0c-2.7-2.4-4.4-5.9-4.5-9.7h5.3c0,0.1,0,0.2,0,0.5c0,0.5,0,0.9,0.1,1.4
			c0,0.4,0.1,0.8,0.1,1.1C6.8,20.5,6.9,21,6.9,21c0,0.1,0.1,0.2,0.3,0.2c0,0,0,0,0.1,0c0.2,0,0.2-0.2,0.2-0.3c0,0-0.1-0.5-0.2-1.2
			c-0.1-0.9-0.2-1.9-0.2-2.5c0-0.1,0-0.3,0-0.4h7.4v1.9c0,0.2,0.1,0.3,0.3,0.3s0.3-0.1,0.3-0.3v-8.6h6.3c0.8,2.5,0.9,4.6,0.9,4.6
			c0,0.2,0.1,0.3,0.3,0.3l0,0c0.2,0,0.3-0.1,0.3-0.3s-0.1-4.3-2.5-8.3c-0.9-1.5-2-2.4-2.9-3c4.2,0.9,7.7,3.6,9.5,7.4l-4.7,5.6
			c-0.2,0-0.4,0-0.6,0c-1.6,0-2.8,0.8-2.8,1.7l0,0v9c0,0.5,0.3,0.9,0.8,1.2c-1.4,1.1-2.9,1.7-4.4,1.8C15.1,29.9,14.8,29.9,14.7,29.9
			z M24.3,17.8c0-0.5-0.3-0.9-0.8-1.2H25c0,1.5-0.3,3-0.8,4.4L24.3,17.8C24.3,17.9,24.3,17.9,24.3,17.8z M19.2,25v-0.8
			c0.5,0.4,1.3,0.7,2.3,0.7c0.4,0,0.7,0,1-0.1c-0.3,0.4-0.6,0.8-0.9,1.2c-0.1,0.1-0.1,0.1-0.2,0.2C20.1,26.2,19.2,25.6,19.2,25z
			 M20.9,26.8c-0.3,0.3-0.6,0.6-1,0.9c-0.5-0.2-0.7-0.5-0.7-0.9v-0.7C19.6,26.4,20.2,26.7,20.9,26.8z M21.5,24.3
			c-1.3,0-2.3-0.6-2.3-1.2v-0.7c0.5,0.4,1.3,0.7,2.3,0.7c0.9,0,1.7-0.3,2.3-0.7v0.1c-0.2,0.5-0.5,1-0.8,1.5
			C22.6,24.2,22.1,24.3,21.5,24.3z M21.5,22.6c-1.3,0-2.3-0.6-2.3-1.2v-0.7c0.5,0.4,1.3,0.7,2.3,0.7c0.9,0,1.7-0.3,2.3-0.7v0.7
			C23.7,22,22.8,22.6,21.5,22.6z M21.5,20.8c-1.3,0-2.3-0.6-2.3-1.2v-0.7c0.5,0.4,1.3,0.7,2.3,0.7c0.9,0,1.7-0.3,2.3-0.7v0.7
			C23.7,20.2,22.8,20.8,21.5,20.8z M23.7,17.9c0,0.6-0.9,1.2-2.3,1.2s-2.3-0.6-2.3-1.2s0.9-1.2,2.3-1.2
			C22.8,16.7,23.7,17.3,23.7,17.9z M30.7,16.1c-0.2,0-0.3,0.1-0.3,0.3c-0.1,4-1.8,7.5-4.9,10c-2.1,1.7-4.6,2.8-7.4,3.3
			c1.4-0.7,2.7-1.8,3.9-3.2c2.3-2.8,3.6-6.4,3.6-10c0-0.1,0-0.1-0.1-0.2s-0.1-0.1-0.2-0.1h-2.4l5.1-6l4.9,6L30.7,16.1L30.7,16.1z"/>
		<path class="st0" d="M14.9,30.8h-0.2c-8,0-14.4-6.5-14.4-14.4c0-7.8,6.1-14.2,14-14.4c0.1,0,0.6,0,0.6,0c5.2,0,10,2.9,12.5,7.5
			l0.2-0.2C27.6,9.1,27.8,9,28,9s0.4,0.1,0.5,0.2l5.5,6.7c0.2,0.2,0.2,0.5,0.1,0.7C34,16.8,33.8,17,33.5,17h-2.2
			c-0.3,4-2.1,7.5-5.2,10.1C23.1,29.5,19.1,30.8,14.9,30.8z M9.6,28.5c1.6,0.7,3.3,1,5,1c0.1,0,0.4,0,0.4,0c1.2-0.1,2.5-0.6,3.8-1.5
			c-0.4-0.4-0.6-0.8-0.6-1.2v-9c0-1.2,1.4-2.1,3.2-2.1c0.2,0,0.3,0,0.5,0l0.5-0.6c-0.3,0-0.6-0.3-0.6-0.6c0,0-0.1-1.9-0.8-4.2h-5.7
			v8.3c0,0.4-0.3,0.6-0.6,0.6s-0.6-0.3-0.6-0.6V17H7.5l0,0c0,0.5,0.1,1.6,0.2,2.4c0.1,0.7,0.2,1.2,0.2,1.2c0,0.1,0,0.2,0,0.3
			c0.2,0,0.4,0,0.7,0c1.8,0,3.2,0.9,3.2,2.1v3.5C11.6,27.5,10.8,28.2,9.6,28.5z M23.7,15.7h1.7c0.2,0,0.3,0.1,0.5,0.2
			c0.1,0.1,0.2,0.3,0.2,0.5c0,3.7-1.3,7.4-3.7,10.2c-0.7,0.8-1.4,1.6-2.2,2.2c1.9-0.6,3.7-1.5,5.2-2.7c3-2.4,4.7-5.8,4.8-9.7
			c0-0.4,0.3-0.6,0.6-0.6h1.4L28,10.6L23.7,15.7z M6.5,26.5L6.5,26.5c0,0.3,0.6,0.8,1.8,0.9h0.3c1.1-0.1,1.7-0.5,1.7-0.8v-0.1
			C9.3,27,7.6,27,6.5,26.5z M19.6,26.8L19.6,26.8c0,0.2,0.1,0.3,0.3,0.5c0.1-0.1,0.2-0.2,0.3-0.3C20,26.9,19.8,26.8,19.6,26.8z
			 M19.6,24.9V25c0,0.3,0.6,0.7,1.7,0.8l0.1-0.1c0.1-0.2,0.3-0.3,0.4-0.5C20.9,25.3,20.2,25.2,19.6,24.9z M6.5,24.8L6.5,24.8
			c0,0.1,0,0.2,0.1,0.3c0.2,0.3,0.9,0.6,1.8,0.6c1.2,0,1.9-0.5,1.9-0.8v-0.1C9.3,25.3,7.6,25.3,6.5,24.8z M1.5,17
			c0.2,3.2,1.5,6.2,3.7,8.5V23c0-0.8,0.6-1.4,1.5-1.8c-0.1-0.1-0.2-0.2-0.2-0.3c0-0.1-0.1-0.6-0.2-1.3c0-0.4-0.1-0.8-0.1-1.1
			c0-0.5-0.1-0.9-0.1-1.4V17C6.1,17,1.5,17,1.5,17z M19.6,23.1L19.6,23.1c0,0.3,0.7,0.9,1.9,0.9c0.5,0,0.9-0.1,1.2-0.2
			c0.1-0.2,0.2-0.3,0.3-0.5C21.9,23.6,20.5,23.6,19.6,23.1z M8.4,22.2c-1.2,0-1.9,0.5-1.9,0.8s0.7,0.8,1.9,0.8s1.9-0.5,1.9-0.8
			C10.3,22.8,9.7,22.2,8.4,22.2z M19.6,21.3L19.6,21.3c0,0.3,0.7,0.9,1.9,0.9c1.2,0,1.9-0.5,1.9-0.8v-0.1
			C22.3,21.8,20.6,21.8,19.6,21.3z M19.6,19.6L19.6,19.6c0,0.3,0.7,0.9,1.9,0.9c1.2,0,1.9-0.5,1.9-0.8v-0.1
			C22.3,20.1,20.6,20.1,19.6,19.6z M21.5,17c-1.2,0-1.9,0.5-1.9,0.8s0.7,0.8,1.9,0.8c1.2,0,1.9-0.5,1.9-0.8
			C23.4,17.6,22.7,17,21.5,17z M24.1,17.9h0.2H24.1L24.1,17.9z M24.4,17c0.1,0.2,0.2,0.4,0.2,0.6c0-0.2,0-0.4,0-0.6H24.4z
			 M22.4,16.4h0.1H22.4L22.4,16.4z M7.4,15.8H14v-5.5H8.3C7.8,12,7.5,13.8,7.4,15.8z M1.5,15.8h4.6c0-1.9,0.3-3.8,0.8-5.5H3
			C2.1,12,1.6,13.8,1.5,15.8z M19,4c0.6,0.6,1.1,1.2,1.5,2c2.3,3.8,2.6,7.7,2.6,8.4l3.3-3.9C24.9,7.5,22.2,5.1,19,4z M15.3,9h5.2
			c-0.3-0.8-0.7-1.6-1.2-2.4c-1.5-2.5-3.3-3.1-4.1-3.3V9H15.3z M8.7,9h5.4V3.3C11.9,3.6,9.9,5.7,8.7,9z M3.8,9h3.5C8,7,9,5.2,10.2,4
			C7.7,4.9,5.4,6.7,3.8,9z M16,2.8L16,2.8L16,2.8L16,2.8z"/>
	</g>
</g>
</svg>
